<?xml version="1.0" encoding="iso-8859-1"?>
<!-- Generator: Adobe Illustrator 19.0.0, SVG Export Plug-In . SVG Version: 6.00 Build 0)  -->
<svg version="1.1" id="Layer_1" xmlns="http://www.w3.org/2000/svg" xmlns:xlink="http://www.w3.org/1999/xlink" x="0px" y="0px"
	 viewBox="0 0 512.001 512.001" style="enable-background:new 0 0 512.001 512.001;" xml:space="preserve">
<polygon style="fill:#CCCCCC;" points="403.674,205.022 146.995,205.022 146.995,56.309 46.243,56.309 46.243,455.689 
	146.995,455.689 146.995,306.377 403.674,306.377 "/>
<polygon style="fill:#B3B3B3;" points="146.995,277.086 146.995,56.311 118.017,56.311 118.017,455.689 146.995,455.689 
	146.995,306.373 403.674,306.373 403.674,277.086 "/>
<path style="fill:#FFCC5A;" d="M29.317,56.631V15.715c0-4.655,3.774-8.429,8.429-8.429h115.512c4.655,0,8.429,3.774,8.429,8.429
	v40.916c0,4.655-3.774,8.429-8.429,8.429H37.745C33.09,65.06,29.317,61.286,29.317,56.631z"/>
<path style="fill:#B3B3B3;" d="M29.317,496.285v-40.916c0-4.655,3.774-8.429,8.429-8.429h115.512c4.655,0,8.429,3.774,8.429,8.429
	v40.916c0,4.655-3.774,8.429-8.429,8.429H37.745C33.09,504.713,29.317,500.94,29.317,496.285z"/>
<path style="fill:#FFCC5A;" d="M29.317,496.285v-40.916c0-4.655,3.774-8.429,8.429-8.429h115.512c4.655,0,8.429,3.774,8.429,8.429
	v40.916c0,4.655-3.774,8.429-8.429,8.429H37.745C33.09,504.713,29.317,500.94,29.317,496.285z"/>
<path style="fill:#FFA227;" d="M205.751,192.74H164.91c-3.375,0-6.111-2.753-6.111-6.148V162.77c0-4.016-3.236-7.272-7.228-7.272
	H40.859c-3.992,0-7.229,3.256-7.229,7.272v185.859c0,4.016,3.236,7.272,7.229,7.272H151.57c3.992,0,7.228-3.256,7.228-7.272v-23.823
	c0-3.395,2.736-6.148,6.111-6.148h40.841c3.992,0,7.229-3.256,7.229-7.272V200.012C212.979,195.996,209.743,192.74,205.751,192.74z"
	/>
<path style="fill:#F78B0B;" d="M205.751,192.741h-21.884V282.1c0,4.016-3.236,7.272-7.229,7.272h-40.841
	c-3.375,0-6.111,2.752-6.111,6.148v23.823c0,4.016-3.236,7.272-7.228,7.272H33.631v22.015c0,4.016,3.236,7.272,7.229,7.272h110.71
	c3.992,0,7.228-3.256,7.228-7.272v-23.823c0-3.395,2.736-6.148,6.111-6.148h40.841c3.992,0,7.229-3.256,7.229-7.272V200.012
	C212.979,195.996,209.743,192.741,205.751,192.741z"/>
<path style="fill:#FFCC5A;" d="M422.667,176.572v10.539c0,1.581-1.282,2.863-2.863,2.863h-19.709c-3.392,0-6.143,2.767-6.143,6.18
	v119.092c0,3.413,2.75,6.18,6.143,6.18h19.709c1.581,0,2.863,1.282,2.863,2.863v10.539c0,3.413,2.75,6.18,6.143,6.18h47.731
	c3.393,0,6.143-2.767,6.143-6.18V176.572c0-3.413-2.75-6.18-6.143-6.18H428.81C425.417,170.392,422.667,173.159,422.667,176.572z"/>
<g>
	<path style="fill:#FFB000;" d="M476.541,170.392h-22.97v170.614h22.97c3.393,0,6.143-2.767,6.143-6.179V176.572
		C482.683,173.159,479.933,170.392,476.541,170.392z"/>
	<path style="fill:#FFB000;" d="M153.282,446.94h-20.709v57.773h20.709c4.641,0,8.404-3.785,8.404-8.454v-40.866
		C161.686,450.725,157.923,446.94,153.282,446.94z"/>
	<path style="fill:#FFB000;" d="M153.282,7.285h-20.709v57.773h20.709c4.641,0,8.404-3.785,8.404-8.454V15.739
		C161.686,11.07,157.923,7.285,153.282,7.285z"/>
</g>
<path style="fill:#051C1B;" d="M476.54,163.106h-47.73c-7.405,0-13.43,6.041-13.43,13.466v6.115h-15.285
	c-7.405,0-13.43,6.041-13.43,13.466v1.582H220.071c0,0.001,0,0.001,0,0.001c-1.095-6.947-7.089-12.283-14.32-12.283h-39.666V162.77
	c0-7.099-5.094-13.018-11.806-14.295c0.001,0,0.002,0,0.003,0v-76.18c8.187-0.532,14.691-7.344,14.691-15.663V15.715
	C168.972,7.05,161.922,0,153.257,0H37.745C29.08,0,22.03,7.05,22.03,15.715v40.916c0,8.666,7.05,15.715,15.715,15.715h1.212v15.622
	c0,4.024,3.262,7.287,7.287,7.287s7.287-3.262,7.287-7.287V72.347h86.179v75.865H53.53v-30.919c0-4.024-3.262-7.287-7.287-7.287
	s-7.287,3.262-7.287,7.287v31.059l0,0c-7.106,0.939-12.613,7.039-12.613,14.419V348.63c0,7.379,5.507,13.479,12.613,14.419l0,0
	v76.606h-1.212c-8.665,0-15.715,7.05-15.715,15.715v40.916c0,8.666,7.05,15.715,15.715,15.715h115.512
	c8.665,0,15.715-7.05,15.715-15.715V455.37c0-8.32-6.504-15.131-14.691-15.663v-76.782c-0.001,0-0.002,0-0.003,0
	c6.712-1.277,11.806-7.196,11.806-14.295v-22.684h39.666c7.23,0,13.225-5.335,14.32-12.283c0,0.001,0,0.001,0,0.002h105.653
	c4.025,0,7.287-3.262,7.287-7.287s-3.262-7.287-7.287-7.287H220.267v-86.783h166.399v86.783h-31.811
	c-4.025,0-7.287,3.262-7.287,7.287s3.262,7.287,7.287,7.287h31.811v1.582c0,7.425,6.025,13.466,13.43,13.466h15.285v6.115
	c0,7.426,6.025,13.466,13.43,13.466h47.731c7.405,0,13.43-6.041,13.43-13.466V176.572
	C489.97,169.147,483.946,163.106,476.54,163.106z M37.745,57.773c-0.63,0-1.142-0.512-1.142-1.142V15.715
	c0-0.63,0.512-1.142,1.142-1.142h115.512c0.63,0,1.142,0.512,1.142,1.142v40.916c0,0.63-0.512,1.142-1.142,1.142H37.745z
	 M53.53,363.187h86.179v76.466H53.53V363.187z M154.399,496.285c0,0.63-0.512,1.142-1.142,1.142H37.745
	c-0.63,0-1.142-0.512-1.142-1.142v-40.916c0-0.63,0.512-1.142,1.142-1.142h115.512c0.63,0,1.142,0.512,1.142,1.142V496.285z
	 M151.571,348.614L151.571,348.614 M164.91,311.372c-7.387,0-13.398,6.027-13.398,13.434l0.001,23.808l-110.596,0.015
	l-0.058-185.844l110.653-0.015v23.823c0,7.408,6.01,13.435,13.398,13.435l40.784-0.015l0.058,111.36H164.91V311.372z
	 M220.206,312.594c0.033-0.399,0.061-0.799,0.061-1.207C220.267,311.795,220.243,312.196,220.206,312.594z M220.206,198.806
	c0.037,0.398,0.061,0.799,0.061,1.207C220.267,199.605,220.238,199.205,220.206,198.806z M475.397,333.72h-45.444v-9.432
	c0-5.596-4.553-10.149-10.149-10.149h-18.565V197.261h18.565c5.596,0,10.149-4.553,10.149-10.149v-9.432h45.444V333.72z"/>
<g>
</g>
<g>
</g>
<g>
</g>
<g>
</g>
<g>
</g>
<g>
</g>
<g>
</g>
<g>
</g>
<g>
</g>
<g>
</g>
<g>
</g>
<g>
</g>
<g>
</g>
<g>
</g>
<g>
</g>
</svg>
